<svg xmlns="http://www.w3.org/2000/svg" viewBox="0 0 120 120" fill="none">
  <path d="M 58 8 C 30 8, 8 28, 8 58 C 8 88, 28 110, 58 112 C 78 113, 95 104, 104 88 C 108 81, 110 72, 110 63 C 110 42, 98 22, 76 12 C 70 9, 64 8, 58 8 Z" stroke="#0f172a" stroke-width="3.2"/>
  <path d="M 56 22 C 36 23, 22 38, 22 58 C 22 78, 35 95, 56 96 C 72 97, 86 88, 92 74 C 96 66, 96 56, 92 46 C 86 32, 72 22, 56 22 Z" stroke="#0f172a" stroke-width="2.8"/>
  <path d="M 52 42 C 42 44, 36 52, 38 62 C 40 72, 48 78, 58 76 C 68 74, 78 68, 78 56 C 78 46, 70 40, 60 40 C 57 40, 54 41, 52 42 Z" stroke="#0f172a" stroke-width="2.8"/>
  <path d="M 105 44 C 114 54, 114 70, 106 82" stroke="#0f9c93" stroke-width="4.5" stroke-linecap="round"/>
</svg>
