<svg xmlns="http://www.w3.org/2000/svg" viewBox="-6 -6 132 132" fill="none">
  <path d="M 100 30 C 90 14, 72 4, 54 4 C 28 4, 6 26, 6 54 C 6 82, 28 104, 54 104 C 72 104, 88 94, 98 80" stroke="#0f172a" stroke-width="3" stroke-linecap="round"/>
  <path d="M 66 18 C 48 14, 28 22, 20 40 C 12 56, 16 76, 32 88 C 46 98, 66 98, 80 86 C 92 74, 96 56, 88 40 C 82 26, 74 20, 66 18 Z" stroke="#0f172a" stroke-width="2.5"/>
  <path d="M 58 38 C 44 38, 34 48, 34 60 C 34 72, 44 80, 58 80 C 70 80, 80 72, 80 60 C 80 48, 72 38, 58 38 Z" stroke="#0f172a" stroke-width="2.8"/>
  <path d="M 99 34 C 106 46, 106 62, 100 76" stroke="#0f9c93" stroke-width="4.5" stroke-linecap="round"/>
</svg>
