<svg xmlns="http://www.w3.org/2000/svg" viewBox="-4 -4 128 128" fill="none">
  <path d="M 78 12 C 62 6, 42 8, 28 20 C 14 32, 8 50, 10 66 C 12 82, 22 96, 38 104 C 54 112, 74 112, 90 102 C 100 96, 106 84, 108 72 C 110 58, 106 44, 96 34" stroke="#0f172a" stroke-width="3" stroke-linecap="round"/>
  <path d="M 52 26 C 38 28, 24 38, 22 54 C 20 70, 26 84, 42 92 C 56 98, 72 94, 82 82 C 90 72, 92 58, 86 44 C 80 32, 66 24, 52 26 Z" stroke="#0f172a" stroke-width="2.6"/>
  <path d="M 50 46 C 40 48, 34 56, 36 66 C 38 76, 48 82, 60 78 C 70 74, 76 64, 72 54 C 68 46, 58 44, 50 46 Z" stroke="#0f172a" stroke-width="2.6"/>
  <path d="M 94 30 C 100 38, 104 48, 104 58" stroke="#0f9c93" stroke-width="4.5" stroke-linecap="round"/>
</svg>
