<svg xmlns="http://www.w3.org/2000/svg" viewBox="-6 -6 132 132" fill="none">
  <path d="M 88 16 C 74 6, 54 2, 38 10 C 20 20, 8 40, 8 60 C 8 82, 20 100, 40 108 C 58 116, 78 112, 92 100 C 102 92, 108 78, 110 64" stroke="#0f172a" stroke-width="3" stroke-linecap="round"/>
  <path d="M 42 20 C 26 22, 14 36, 14 54 C 14 72, 22 86, 38 94 C 52 100, 68 96, 78 84 C 86 74, 88 58, 82 44 C 76 30, 58 20, 42 20 Z" stroke="#0f172a" stroke-width="2.5"/>
  <path d="M 36 44 C 24 50, 22 62, 26 72 C 30 80, 42 84, 56 80 C 68 76, 74 64, 68 52 C 62 42, 46 40, 36 44 Z" stroke="#0f172a" stroke-width="2.8"/>
  <path d="M 106 30 C 114 42, 116 56, 114 66" stroke="#0f9c93" stroke-width="4.5" stroke-linecap="round"/>
</svg>
