<svg xmlns="http://www.w3.org/2000/svg" viewBox="-6 -6 132 132" fill="none">
  <path d="M 80 10 C 66 4, 46 4, 32 14 C 16 26, 6 44, 8 64 C 10 84, 22 100, 42 108 C 58 114, 76 112, 88 102 C 98 94, 106 80, 108 66" stroke="#0f172a" stroke-width="3" stroke-linecap="round"/>
  <path d="M 48 22 C 30 24, 16 38, 16 56 C 16 74, 26 90, 44 96 C 60 100, 76 92, 84 78 C 90 66, 88 50, 80 38 C 72 28, 58 22, 48 22 Z" stroke="#0f172a" stroke-width="2.5"/>
  <path d="M 42 42 C 32 46, 28 56, 30 66 C 32 76, 42 82, 54 80 C 66 78, 74 66, 70 54 C 66 44, 52 40, 42 42 Z" stroke="#0f172a" stroke-width="2.8"/>
  <path d="M 104 32 C 110 42, 112 54, 110 64" stroke="#0f9c93" stroke-width="4.5" stroke-linecap="round"/>
</svg>
