<svg xmlns="http://www.w3.org/2000/svg" viewBox="-6 -6 132 132" fill="none">
  <path d="M 84 10 C 70 4, 50 4, 36 12 C 20 22, 8 40, 8 60 C 8 80, 18 96, 36 106 C 50 114, 68 114, 82 106 C 94 98, 104 86, 108 72" stroke="#0f172a" stroke-width="3" stroke-linecap="round"/>
  <path d="M 54 24 C 36 24, 20 36, 18 54 C 16 72, 24 88, 42 96 C 56 102, 74 96, 84 82 C 92 70, 92 54, 84 40 C 78 30, 66 24, 54 24 Z" stroke="#0f172a" stroke-width="2.5"/>
  <path d="M 48 46 C 38 48, 32 56, 34 66 C 36 76, 46 82, 58 80 C 68 78, 76 68, 74 56 C 72 46, 60 42, 48 46 Z" stroke="#0f172a" stroke-width="2.8"/>
  <path d="M 110 42 C 116 52, 118 64, 114 76" stroke="#0f9c93" stroke-width="4.5" stroke-linecap="round"/>
</svg>
